<svg width="45" height="45" viewBox="0 0 45 45" fill="none" xmlns="http://www.w3.org/2000/svg">
<rect width="45" height="45" rx="10" fill="url(#paint0_linear_4_6554)"/>
<path d="M12.5 16.5C12.5 15.6716 13.1716 15 14 15H31C31.8284 15 32.5 15.6716 32.5 16.5C32.5 17.3284 31.8284 18 31 18H14C13.1716 18 12.5 17.3284 12.5 16.5Z" fill="white"/>
<path d="M12.5 22.5C12.5 21.6716 13.1716 21 14 21H31C31.8284 21 32.5 21.6716 32.5 22.5C32.5 23.3284 31.8284 24 31 24H14C13.1716 24 12.5 23.3284 12.5 22.5Z" fill="white"/>
<path d="M12.5 28.5C12.5 27.6716 13.1716 27 14 27H31C31.8284 27 32.5 27.6716 32.5 28.5C32.5 29.3284 31.8284 30 31 30H14C13.1716 30 12.5 29.3284 12.5 28.5Z" fill="white"/>
<defs>
<linearGradient id="paint0_linear_4_6554" x1="-4.0099" y1="45" x2="62.1428" y2="45.375" gradientUnits="userSpaceOnUse">
<stop stop-color="#FFC71F"/>
<stop offset="1" stop-color="#FC6076"/>
</linearGradient>
</defs>
</svg>
