<svg width="56" height="55" viewBox="0 0 56 55" fill="none" xmlns="http://www.w3.org/2000/svg">
<circle cx="27.8233" cy="27.5" r="27.5" fill="#4775D8"/>
<path d="M36.5714 19.2031H20.0714C19.3422 19.2038 18.6432 19.4723 18.1277 19.9495C17.6121 20.4267 17.3221 21.0737 17.3214 21.7486V32.6577C17.3221 33.3325 17.6121 33.9796 18.1277 34.4568C18.6432 34.934 19.3422 35.2024 20.0714 35.2031H36.5714C37.3005 35.2024 37.9995 34.934 38.515 34.4568C39.0306 33.9796 39.3206 33.3325 39.3214 32.6577V21.7486C39.3206 21.0737 39.0306 20.4267 38.515 19.9495C37.9995 19.4723 37.3005 19.2038 36.5714 19.2031ZM35.875 23.4136L28.8036 28.5045C28.6657 28.6037 28.496 28.6576 28.3214 28.6576C28.1467 28.6576 27.977 28.6037 27.8391 28.5045L20.7677 23.4136C20.6846 23.3555 20.6148 23.2827 20.5624 23.1995C20.51 23.1162 20.4759 23.0241 20.4623 22.9286C20.4486 22.8331 20.4556 22.736 20.4828 22.643C20.5101 22.55 20.557 22.4629 20.6209 22.3868C20.6848 22.3107 20.7644 22.2472 20.8551 22.1998C20.9458 22.1524 21.0457 22.1222 21.1491 22.1109C21.2525 22.0997 21.3573 22.1075 21.4574 22.134C21.5575 22.1605 21.6509 22.2052 21.7322 22.2654L28.3214 27.009L34.9105 22.2654C35.0753 22.1502 35.2824 22.0997 35.4871 22.1248C35.6918 22.1499 35.8776 22.2485 36.0043 22.3994C36.1311 22.5502 36.1885 22.7412 36.1643 22.931C36.1401 23.1208 36.0362 23.2942 35.875 23.4136Z" fill="white"/>
</svg>
