<svg width="23" height="23" viewBox="0 0 23 23" fill="none" xmlns="http://www.w3.org/2000/svg">
<g clip-path="url(#clip0_0_7349)">
<path d="M11.4776 0.0234375C7.81879 0.0234375 4.84213 3.00014 4.84213 6.65889C4.84213 8.92516 5.98445 10.9294 7.72328 12.127C6.09985 12.6872 4.61186 13.6126 3.36177 14.8627C1.19389 17.0306 0 19.9128 0 22.9786H1.79337C1.79337 17.6387 6.13768 13.2944 11.4776 13.2944C15.1364 13.2944 18.113 10.3177 18.113 6.65889C18.113 3.0001 15.1364 0.0234375 11.4776 0.0234375ZM11.4776 11.501C8.80765 11.501 6.6355 9.32887 6.6355 6.65894C6.6355 3.98901 8.80765 1.81681 11.4776 1.81681C14.1475 1.81681 16.3197 3.98896 16.3197 6.65894C16.3197 9.32891 14.1475 11.501 11.4776 11.501Z" fill="white"/>
<path d="M19.2343 17.4224V13.6562H17.4409V17.4224H13.6748V19.2157H17.4409V22.9818H19.2343V19.2157H23.0004V17.4224H19.2343Z" fill="white"/>
</g>
<defs>
<clipPath id="clip0_0_7349">
<rect width="23" height="23" fill="white"/>
</clipPath>
</defs>
</svg>
