<svg width="31" height="30" viewBox="0 0 31 30" fill="none" xmlns="http://www.w3.org/2000/svg">
<path d="M29.1319 4.20072C28.7256 2.92287 28.1749 2.00792 28.1516 1.96946C28.0613 1.82063 27.8754 1.74321 27.707 1.78184C27.6634 1.79179 26.6235 2.03452 25.4239 2.63362C23.8044 3.44215 22.6732 4.52155 22.152 5.7546C21.7182 6.78148 21.6559 8.03684 21.9637 9.42369C21.3081 8.69155 20.5707 8.05109 19.7668 7.5119C19.5213 7.02695 18.8723 5.83305 17.8576 4.58524C17.5233 4.17446 16.8805 4.68995 17.2181 5.10486C17.9018 5.94583 18.4165 6.77289 18.7384 7.34109L14.9853 6.60947L11.4196 1.74579C11.7658 1.7506 12.1133 1.78407 12.459 1.85188C13.555 2.06645 14.6377 2.6247 15.6775 3.51081C16.0848 3.85808 16.6139 3.22603 16.2118 2.88356C15.0633 1.90475 13.8539 1.28539 12.6173 1.04318C10.7295 0.673764 8.52776 1.15871 6.24947 2.44617C4.5514 3.40576 3.41586 4.45976 3.36848 4.50405C3.21656 4.64601 3.19235 4.90384 3.31955 5.06967C3.48606 5.41128 4.11709 6.64363 5.16749 7.97041C5.78667 8.75267 6.43967 9.42215 7.11516 9.97232C6.92324 10.1332 6.73647 10.3014 6.55572 10.4784C5.59029 11.4227 4.85112 12.5366 4.36583 13.7544C3.93685 14.8303 3.70613 15.9879 3.69326 17.1809C3.67197 19.1318 4.23726 21.0134 5.32834 22.6226C6.39418 24.1943 7.8842 25.4011 9.63721 26.1123C10.1278 26.3109 10.438 25.5478 9.94706 25.3487C9.31191 25.0911 8.71522 24.761 8.16487 24.3684C8.23525 23.978 8.3985 22.5731 7.46535 21.1188C7.33471 20.9154 7.72524 20.1165 7.95836 19.6393C8.19903 19.1475 8.44742 18.639 8.56347 18.1602C8.68672 17.6516 8.54802 17.2247 8.16264 16.9251C7.87974 16.7052 7.50947 16.5914 7.18314 16.491C6.97114 16.4258 6.73081 16.3519 6.64498 16.2804C6.46817 16.1322 6.17943 15.5848 5.94735 15.1452C5.68985 14.6575 5.44472 14.1933 5.19444 13.9075C5.75766 12.5699 6.66232 11.3863 7.79528 10.4808C8.83023 11.1858 10.0114 11.6723 11.267 11.7708C9.81093 12.899 9.33989 14.3397 10.0131 15.7237C10.7994 17.3397 12.4176 17.0815 13.8453 16.8541C14.0923 16.8146 14.3479 16.7739 14.5927 16.7433C14.6846 16.7318 14.7122 16.7569 14.7307 16.7732C15.0433 17.0513 15.0341 18.3794 15.0274 19.3493C15.0183 20.6909 15.0097 21.9581 15.5094 22.6087C15.7643 22.9403 16.1233 23.1099 16.544 23.1099C16.7962 23.1099 17.0701 23.0491 17.3575 22.9259C18.6002 22.3937 19.8919 20.7921 19.6949 19.5249C19.5227 18.417 19.4087 17.6851 19.6773 17.0951C19.9257 16.549 20.5262 16.0435 21.7088 15.3984C21.8504 16.0361 21.9218 16.6996 21.9144 17.3802C21.8892 19.7035 20.9605 21.8779 19.2997 23.5027C17.4435 25.3185 14.8348 26.2153 12.2542 25.9308C11.7284 25.8738 11.6376 26.692 12.1641 26.75C14.9888 27.061 17.8447 26.0791 19.8758 24.0918C21.6942 22.3129 22.7108 19.9326 22.7384 17.389C22.7751 14.0163 21.0446 11.0284 18.4103 9.30713C18.9546 8.91901 19.3601 8.58341 19.585 8.38857C20.5454 9.07762 21.3974 9.92649 22.1062 10.9154C23.8077 13.29 24.4825 16.1847 24.0066 19.0669C23.0239 25.0166 17.3843 29.058 11.4336 28.0749C8.55128 27.5989 6.027 26.0292 4.32549 23.6546C2.62381 21.2802 1.94901 18.3851 2.42503 15.5031C2.51051 14.9845 1.69804 14.8484 1.61221 15.3688C1.10014 18.4682 1.8261 21.5813 3.65549 24.1347C5.48523 26.6879 8.20006 28.376 11.2994 28.888C11.9476 28.995 12.5965 29.0479 13.2409 29.0479C15.6768 29.0479 18.0464 28.2915 20.0656 26.8446C22.6194 25.0148 24.3077 22.3005 24.8195 19.2012C25.1945 16.9301 24.9043 14.6516 24.0027 12.5914C24.4188 12.4686 25.1269 12.2304 25.9025 11.8431C27.5216 11.0346 28.653 9.95515 29.174 8.72211C29.6955 7.48872 29.6809 5.92523 29.1319 4.20072ZM5.21847 15.5297C5.52506 16.1109 5.815 16.6603 6.11626 16.9123C6.32964 17.0906 6.62661 17.1819 6.94092 17.2786C7.74619 17.5261 7.83974 17.6476 7.7625 17.9661C7.66774 18.3576 7.43909 18.8252 7.21816 19.2772C6.79261 20.1479 6.39075 20.9698 6.77167 21.5638C7.31188 22.4056 7.40441 23.2344 7.39514 23.7499C4.94107 21.537 3.94183 18.0418 4.85592 14.865C4.97712 15.0727 5.10449 15.3141 5.21847 15.5297ZM25.1527 7.43293L23.9818 4.59537C24.5515 4.06253 25.2126 3.66153 25.7756 3.37915C26.2552 3.13848 26.7115 2.95858 27.0775 2.83103L25.1527 7.43293ZM27.8371 3.1505C28.0007 3.50206 28.1904 3.95542 28.3524 4.46782C28.5301 5.03019 28.6932 5.72713 28.7256 6.45412L25.9816 7.58623L27.8371 3.1505ZM22.9109 6.07543C23.0325 5.78807 23.1895 5.52165 23.371 5.27566L24.7039 8.50547L23.5078 11.3657C23.3397 11.0092 23.1418 10.5409 22.9739 10.0089C22.637 8.94373 22.3527 7.39637 22.9109 6.07543ZM25.5506 11.0976C25.089 11.3293 24.6485 11.5047 24.2897 11.6313L25.531 8.66375L28.6906 7.35998C28.6448 7.71394 28.5574 8.06482 28.4151 8.40128C27.857 9.72221 26.5493 10.5968 25.5506 11.0976ZM10.6938 10.8631C10.5482 10.8346 10.4045 10.7997 10.2629 10.7601L14.8229 7.41748L18.5777 8.14928C17.2099 9.22697 13.8812 11.4876 10.6938 10.8631ZM6.52636 8.28523C5.55115 7.23415 4.83635 6.11028 4.42591 5.39068L9.20411 6.32228L6.52636 8.28523ZM7.37025 2.78812L9.36942 5.51496L4.56032 4.57752C5.16577 4.09944 6.16519 3.38172 7.37025 2.78812ZM10.5614 5.74739L8.13775 2.44136C8.86336 2.14319 9.64219 1.90852 10.4406 1.80415L13.7935 6.37721L10.5614 5.74739ZM10.305 6.53686L13.7222 7.20291L9.33646 10.4176C8.50939 10.0357 7.76507 9.48652 7.11379 8.87609L10.305 6.53686ZM21.4849 14.5826C19.9996 15.374 19.2722 15.9956 18.9272 16.7538C18.5566 17.568 18.6924 18.4419 18.8803 19.6515C18.9914 20.3647 18.1437 21.6929 17.0331 22.1685C16.6221 22.3445 16.3294 22.3237 16.1627 22.1066C15.8354 21.6805 15.8443 20.391 15.8514 19.355C15.8611 17.9216 15.8697 16.6838 15.2783 16.1576C15.0657 15.9685 14.7936 15.8885 14.4913 15.9255C14.2322 15.9578 13.9694 15.9997 13.7155 16.0402C12.201 16.2816 11.2479 16.3782 10.7542 15.3632C9.95427 13.7192 11.5736 12.5014 12.3069 12.0542C12.4562 11.9633 12.5948 11.856 12.7235 11.7365C14.4959 11.5247 16.1706 10.7642 17.6631 9.81165C19.4525 10.8808 20.8261 12.5726 21.4849 14.5826Z" fill="#80879E"/>
</svg>
