<svg width="111" height="20" viewBox="0 0 111 20" fill="none" xmlns="http://www.w3.org/2000/svg">
<path d="M99.9229 1.38746C100.136 0.874148 100.864 0.874147 101.077 1.38746L102.998 6.00695C103.088 6.22335 103.292 6.3712 103.526 6.38993L108.513 6.78975C109.067 6.83417 109.292 7.52574 108.869 7.88741L105.07 11.1422C104.892 11.2947 104.814 11.5339 104.868 11.7619L106.029 16.6285C106.158 17.1693 105.57 17.5967 105.095 17.3069L100.826 14.699C100.626 14.5768 100.374 14.5768 100.174 14.699L95.9045 17.3069C95.4301 17.5967 94.8418 17.1693 94.9708 16.6285L96.1317 11.7619C96.186 11.5339 96.1083 11.2947 95.9303 11.1422L92.1307 7.88741C91.7084 7.52574 91.9332 6.83417 92.4873 6.78975L97.4744 6.38993C97.7081 6.3712 97.9116 6.22335 98.0016 6.00695L99.9229 1.38746Z" fill="#FE9D43"/>
<path d="M77.4229 1.38746C77.6364 0.874148 78.3636 0.874147 78.5771 1.38746L80.4984 6.00695C80.5884 6.22335 80.7919 6.3712 81.0256 6.38993L86.0127 6.78975C86.5668 6.83417 86.7916 7.52574 86.3693 7.88741L82.5697 11.1422C82.3917 11.2947 82.314 11.5339 82.3683 11.7619L83.5292 16.6285C83.6582 17.1693 83.0699 17.5967 82.5955 17.3069L78.3258 14.699C78.1258 14.5768 77.8742 14.5768 77.6742 14.699L73.4045 17.3069C72.9301 17.5967 72.3418 17.1693 72.4708 16.6285L73.6317 11.7619C73.686 11.5339 73.6083 11.2947 73.4303 11.1422L69.6307 7.88741C69.2084 7.52574 69.4332 6.83417 69.9873 6.78975L74.9744 6.38993C75.2081 6.3712 75.4116 6.22335 75.5016 6.00695L77.4229 1.38746Z" fill="#FE9D43"/>
<path d="M54.9229 1.38746C55.1364 0.874148 55.8636 0.874147 56.0771 1.38746L57.9984 6.00695C58.0884 6.22335 58.2919 6.3712 58.5256 6.38993L63.5127 6.78975C64.0668 6.83417 64.2916 7.52574 63.8693 7.88741L60.0697 11.1422C59.8917 11.2947 59.814 11.5339 59.8683 11.7619L61.0292 16.6285C61.1582 17.1693 60.5699 17.5967 60.0955 17.3069L55.8258 14.699C55.6258 14.5768 55.3742 14.5768 55.1742 14.699L50.9045 17.3069C50.4301 17.5967 49.8418 17.1693 49.9708 16.6285L51.1317 11.7619C51.186 11.5339 51.1083 11.2947 50.9303 11.1422L47.1307 7.88741C46.7084 7.52574 46.9332 6.83417 47.4873 6.78975L52.4744 6.38993C52.7081 6.3712 52.9116 6.22335 53.0016 6.00695L54.9229 1.38746Z" fill="#FE9D43"/>
<path d="M32.4229 1.38746C32.6364 0.874148 33.3636 0.874147 33.5771 1.38746L35.4984 6.00695C35.5884 6.22335 35.7919 6.3712 36.0256 6.38993L41.0127 6.78975C41.5668 6.83417 41.7916 7.52574 41.3693 7.88741L37.5697 11.1422C37.3917 11.2947 37.314 11.5339 37.3683 11.7619L38.5292 16.6285C38.6582 17.1693 38.0699 17.5967 37.5955 17.3069L33.3258 14.699C33.1258 14.5768 32.8742 14.5768 32.6742 14.699L28.4045 17.3069C27.9301 17.5967 27.3418 17.1693 27.4708 16.6285L28.6317 11.7619C28.686 11.5339 28.6083 11.2947 28.4303 11.1422L24.6307 7.88741C24.2084 7.52574 24.4332 6.83417 24.9873 6.78975L29.9744 6.38993C30.2081 6.3712 30.4116 6.22335 30.5016 6.00695L32.4229 1.38746Z" fill="#FE9D43"/>
<path d="M9.92292 1.38746C10.1364 0.874148 10.8636 0.874147 11.0771 1.38746L12.9984 6.00695C13.0884 6.22335 13.2919 6.3712 13.5256 6.38993L18.5127 6.78975C19.0668 6.83417 19.2916 7.52574 18.8693 7.88741L15.0697 11.1422C14.8917 11.2947 14.814 11.5339 14.8683 11.7619L16.0292 16.6285C16.1582 17.1693 15.5699 17.5967 15.0955 17.3069L10.8258 14.699C10.6258 14.5768 10.3742 14.5768 10.1742 14.699L5.90454 17.3069C5.4301 17.5967 4.84182 17.1693 4.97081 16.6285L6.13167 11.7619C6.18605 11.5339 6.10832 11.2947 5.93032 11.1422L2.13066 7.88741C1.70845 7.52574 1.93315 6.83417 2.48731 6.78975L7.47444 6.38993C7.70806 6.3712 7.91156 6.22335 8.00157 6.00695L9.92292 1.38746Z" fill="#FE9D43"/>
</svg>
