<svg width="55" height="55" viewBox="0 0 55 55" fill="none" xmlns="http://www.w3.org/2000/svg">
<circle cx="27.5" cy="27.5" r="27.5" fill="#4775D8"/>
<path d="M36.9536 32.2987C36.7322 32.0504 35.9505 31.3165 34.5136 30.3455C33.0661 29.366 31.9986 28.7553 31.6924 28.6129C31.6654 28.6003 31.6357 28.5957 31.6064 28.5995C31.5771 28.6034 31.5493 28.6155 31.5261 28.6347C31.0329 29.0397 30.2024 29.7834 30.1579 29.8236C29.8704 30.083 29.8704 30.083 29.635 30.0022C29.221 29.8593 27.9351 29.1406 26.8146 27.9584C25.6941 26.7762 24.976 25.3892 24.8403 24.9539C24.7627 24.7057 24.7627 24.7057 25.01 24.403C25.0481 24.3561 25.7551 23.482 26.1398 22.9632C26.1581 22.9388 26.1696 22.9096 26.1733 22.8788C26.177 22.8479 26.1726 22.8166 26.1606 22.7882C26.0253 22.4654 25.4451 21.3422 24.5146 19.8185C23.5909 18.3064 22.8945 17.4836 22.6587 17.2506C22.637 17.2291 22.6103 17.2142 22.5812 17.2073C22.5522 17.2005 22.5219 17.202 22.4937 17.2118C21.6694 17.5099 20.8741 17.8904 20.1186 18.3479C19.3893 18.7942 18.6988 19.3074 18.0553 19.8815C18.0328 19.9016 18.016 19.9277 18.0065 19.9571C17.9971 19.9866 17.9955 20.0181 18.0018 20.0484C18.0905 20.4833 18.5142 22.2985 19.8289 24.8128C21.1704 27.3789 22.1001 28.6937 24.0701 30.7602C26.0401 32.8268 27.3286 33.8643 29.769 35.2764C32.1576 36.6603 33.8829 37.1068 34.2952 37.1992C34.3241 37.2058 34.3541 37.2041 34.3821 37.1941C34.4101 37.1842 34.435 37.1666 34.4542 37.1429C34.9995 36.4655 35.4869 35.7387 35.9107 34.971C36.3453 34.1758 36.7067 33.3386 36.99 32.471C36.9991 32.4414 37.0005 32.4099 36.9941 32.3796C36.9877 32.3493 36.9737 32.3214 36.9536 32.2987Z" fill="white"/>
</svg>
