<svg width="23" height="23" viewBox="0 0 23 23" fill="none" xmlns="http://www.w3.org/2000/svg">
<path d="M16.4126 2.57549C17.6414 2.57902 18.8189 3.0503 19.6878 3.88642C20.5566 4.72254 21.0464 5.85554 21.0501 7.03799V15.962C21.0464 17.1445 20.5566 18.2775 19.6878 19.1136C18.8189 19.9497 17.6414 20.421 16.4126 20.4245H7.13873C5.90994 20.421 4.73251 19.9497 3.86362 19.1136C2.99472 18.2775 2.50496 17.1445 2.50129 15.962V7.03799C2.50496 5.85554 2.99472 4.72254 3.86362 3.88642C4.73251 3.0503 5.90994 2.57902 7.13873 2.57549H16.4126ZM16.4126 0.790771H7.13873C3.56799 0.790771 0.646606 3.60195 0.646606 7.03799V15.962C0.646606 19.3981 3.56799 22.2092 7.13873 22.2092H16.4126C19.9834 22.2092 22.9048 19.3981 22.9048 15.962V7.03799C22.9048 3.60195 19.9834 0.790771 16.4126 0.790771Z" fill="#101E2A"/>
<path d="M17.8038 7.03839C17.5287 7.03839 17.2597 6.95988 17.0309 6.81279C16.8022 6.6657 16.6239 6.45663 16.5186 6.21202C16.4133 5.96741 16.3857 5.69825 16.4394 5.43858C16.4931 5.17891 16.6256 4.94038 16.8201 4.75317C17.0147 4.56595 17.2626 4.43846 17.5324 4.38681C17.8023 4.33515 18.082 4.36166 18.3362 4.46298C18.5904 4.5643 18.8076 4.73588 18.9605 4.95602C19.1134 5.17616 19.1949 5.43498 19.1949 5.69974C19.1953 5.87564 19.1596 6.04988 19.0898 6.21247C19.0201 6.37505 18.9176 6.52277 18.7884 6.64715C18.6591 6.77154 18.5056 6.87013 18.3366 6.93726C18.1677 7.0044 17.9866 7.03877 17.8038 7.03839ZM11.7757 7.93051C12.5095 7.93051 13.2267 8.13988 13.8368 8.53215C14.4469 8.92442 14.9224 9.48196 15.2032 10.1343C15.484 10.7866 15.5574 11.5044 15.4143 12.1969C15.2712 12.8894 14.9178 13.5255 14.399 14.0247C13.8802 14.524 13.2191 14.864 12.4995 15.0017C11.7798 15.1395 11.0339 15.0688 10.356 14.7986C9.67813 14.5284 9.09873 14.0708 8.69109 13.4837C8.28344 12.8967 8.06586 12.2065 8.06586 11.5004C8.06692 10.5539 8.45811 9.6465 9.15362 8.97723C9.84912 8.30796 10.7921 7.93152 11.7757 7.93051ZM11.7757 6.1458C10.6752 6.1458 9.59931 6.45984 8.68423 7.04821C7.76915 7.63659 7.05593 8.47286 6.63476 9.45129C6.21359 10.4297 6.1034 11.5064 6.31811 12.5451C6.53281 13.5837 7.06279 14.5378 7.841 15.2867C8.61921 16.0356 9.61072 16.5455 10.6901 16.7521C11.7695 16.9588 12.8884 16.8527 13.9052 16.4474C14.922 16.0422 15.791 15.3558 16.4025 14.4753C17.0139 13.5947 17.3403 12.5595 17.3403 11.5004C17.3403 10.0803 16.754 8.71832 15.7104 7.71413C14.6669 6.70994 13.2515 6.1458 11.7757 6.1458Z" fill="#101E2A"/>
</svg>
