<svg width="22" height="18" viewBox="0 0 22 18" fill="none" xmlns="http://www.w3.org/2000/svg">
<path d="M22 2.8246C21.1946 3.17431 20.3424 3.4047 19.4704 3.5085C20.3868 2.97228 21.076 2.12039 21.4086 1.11261C20.5422 1.61888 19.5959 1.97409 18.6102 2.16305C18.1952 1.72836 17.696 1.38256 17.143 1.14665C16.5901 0.910746 15.9949 0.789669 15.3936 0.790779C12.9593 0.790779 10.9894 2.73073 10.9894 5.12215C10.9876 5.45479 11.0258 5.78644 11.103 6.11001C9.35742 6.02824 7.64816 5.58326 6.08456 4.80356C4.52095 4.02385 3.13743 2.92659 2.02251 1.58196C1.63137 2.24088 1.42451 2.99269 1.42356 3.75882C1.42356 5.26072 2.2077 6.58829 3.39174 7.36606C2.69023 7.34942 2.00309 7.16389 1.38867 6.8252V6.87884C1.38867 8.97971 2.90953 10.7275 4.92245 11.1253C4.54392 11.2261 4.15386 11.2772 3.76211 11.2773C3.48414 11.2777 3.20681 11.2508 2.93414 11.1968C3.49373 12.9177 5.1224 14.1693 7.05166 14.2051C5.48399 15.4124 3.55931 16.0649 1.58012 16.0601C1.22881 16.0596 0.87782 16.0387 0.528931 15.9975C2.54237 17.2823 4.88283 17.9618 7.27174 17.9554C15.3842 17.9554 19.8162 11.3532 19.8162 5.62725C19.8162 5.43952 19.8113 5.25178 19.8023 5.06851C20.6626 4.45705 21.4068 3.69718 22 2.8246Z" fill="#101E2A"/>
</svg>
