<svg width="132" height="19" viewBox="0 0 132 19" fill="none" xmlns="http://www.w3.org/2000/svg">
<path d="M5.86 14.5L0.4 1.56H3.34L7.96 13.02L7.1 13.04L11.5 1.56H14.56L18.96 13.04L18.1 13.02L22.72 1.56H25.6L20.2 14.5H16.94L12.62 3.28H13.46L9.12 14.5H5.86ZM34.9475 11.2H37.4675C37.3608 11.88 37.0742 12.4867 36.6075 13.02C36.1542 13.5533 35.5342 13.9733 34.7475 14.28C33.9608 14.5867 33.0008 14.74 31.8675 14.74C30.6008 14.74 29.4808 14.54 28.5075 14.14C27.5342 13.7267 26.7742 13.1333 26.2275 12.36C25.6808 11.5867 25.4075 10.6533 25.4075 9.56C25.4075 8.46667 25.6742 7.53333 26.2075 6.76C26.7408 5.97333 27.4808 5.37333 28.4275 4.96C29.3875 4.54667 30.5075 4.34 31.7875 4.34C33.0942 4.34 34.1808 4.54667 35.0475 4.96C35.9142 5.37333 36.5542 6 36.9675 6.84C37.3942 7.66667 37.5742 8.72667 37.5075 10.02H28.0275C28.0942 10.5267 28.2808 10.9867 28.5875 11.4C28.9075 11.8133 29.3342 12.14 29.8675 12.38C30.4142 12.62 31.0608 12.74 31.8075 12.74C32.6342 12.74 33.3208 12.6 33.8675 12.32C34.4275 12.0267 34.7875 11.6533 34.9475 11.2ZM31.6675 6.32C30.7075 6.32 29.9275 6.53333 29.3275 6.96C28.7275 7.37333 28.3408 7.88667 28.1675 8.5H34.9275C34.8608 7.83333 34.5408 7.30667 33.9675 6.92C33.4075 6.52 32.6408 6.32 31.6675 6.32ZM47.1022 14.72C46.2222 14.72 45.4689 14.5667 44.8422 14.26C44.2155 13.94 43.7089 13.5267 43.3222 13.02C42.9355 12.5 42.6489 11.94 42.4622 11.34C42.2755 10.7267 42.1822 10.1267 42.1822 9.54C42.1822 8.80667 42.2689 8.12667 42.4422 7.5C42.6289 6.87333 42.9155 6.32667 43.3022 5.86C43.6889 5.38 44.1955 5.00667 44.8222 4.74C45.4489 4.47333 46.2089 4.34 47.1022 4.34C48.1289 4.34 49.0355 4.56 49.8222 5C50.6222 5.42667 51.2489 6.02667 51.7022 6.8C52.1689 7.57333 52.4022 8.48667 52.4022 9.54C52.4022 10.5667 52.1689 11.4733 51.7022 12.26C51.2355 13.0333 50.6022 13.64 49.8022 14.08C49.0022 14.5067 48.1022 14.72 47.1022 14.72ZM46.2622 12.72C46.9689 12.72 47.5822 12.5867 48.1022 12.32C48.6222 12.0533 49.0222 11.6867 49.3022 11.22C49.5955 10.74 49.7422 10.18 49.7422 9.54C49.7422 8.58 49.4355 7.80667 48.8222 7.22C48.2222 6.63333 47.3689 6.34 46.2622 6.34C45.4889 6.34 44.8155 6.46667 44.2422 6.72C43.6689 6.97333 43.2222 7.34 42.9022 7.82C42.5955 8.28667 42.4422 8.86 42.4422 9.54C42.4422 10.1667 42.5955 10.72 42.9022 11.2C43.2089 11.68 43.6489 12.0533 44.2222 12.32C44.7955 12.5867 45.4755 12.72 46.2622 12.72ZM42.4422 0.559999V11.94C42.4422 12.3667 42.4222 12.8267 42.3822 13.32C42.3422 13.8 42.3022 14.1933 42.2622 14.5H39.8422V0.559999H42.4422ZM66.8892 1.56C68.3426 1.56 69.5559 1.73333 70.5292 2.08C71.5026 2.42667 72.2759 2.9 72.8492 3.5C73.4359 4.08667 73.8492 4.76667 74.0892 5.54C74.3426 6.31333 74.4692 7.12667 74.4692 7.98C74.4692 8.83333 74.3292 9.65333 74.0492 10.44C73.7826 11.2267 73.3492 11.9267 72.7492 12.54C72.1626 13.14 71.3826 13.62 70.4092 13.98C69.4492 14.3267 68.2759 14.5 66.8892 14.5H59.4892V1.56H66.8892ZM62.1492 12.22H66.8292C67.7892 12.22 68.5826 12.1067 69.2092 11.88C69.8492 11.64 70.3559 11.32 70.7292 10.92C71.1026 10.52 71.3692 10.0667 71.5292 9.56C71.6892 9.05333 71.7692 8.52667 71.7692 7.98C71.7692 7.43333 71.6892 6.91333 71.5292 6.42C71.3692 5.92667 71.1026 5.48667 70.7292 5.1C70.3559 4.71333 69.8492 4.40667 69.2092 4.18C68.5826 3.95333 67.7892 3.84 66.8292 3.84H62.1492V12.22ZM85.7873 11.2H88.3073C88.2007 11.88 87.914 12.4867 87.4473 13.02C86.994 13.5533 86.374 13.9733 85.5873 14.28C84.8007 14.5867 83.8407 14.74 82.7073 14.74C81.4407 14.74 80.3207 14.54 79.3473 14.14C78.374 13.7267 77.614 13.1333 77.0673 12.36C76.5207 11.5867 76.2473 10.6533 76.2473 9.56C76.2473 8.46667 76.514 7.53333 77.0473 6.76C77.5807 5.97333 78.3207 5.37333 79.2673 4.96C80.2273 4.54667 81.3473 4.34 82.6273 4.34C83.934 4.34 85.0207 4.54667 85.8873 4.96C86.754 5.37333 87.394 6 87.8073 6.84C88.234 7.66667 88.414 8.72667 88.3473 10.02H78.8673C78.934 10.5267 79.1207 10.9867 79.4273 11.4C79.7473 11.8133 80.174 12.14 80.7073 12.38C81.254 12.62 81.9007 12.74 82.6473 12.74C83.474 12.74 84.1607 12.6 84.7073 12.32C85.2673 12.0267 85.6273 11.6533 85.7873 11.2ZM82.5073 6.32C81.5473 6.32 80.7673 6.53333 80.1673 6.96C79.5673 7.37333 79.1807 7.88667 79.0073 8.5H85.7673C85.7007 7.83333 85.3807 7.30667 84.8073 6.92C84.2473 6.52 83.4807 6.32 82.5073 6.32ZM89.882 11.2H92.282C92.4287 11.6533 92.7287 12.0267 93.182 12.32C93.6487 12.6 94.2554 12.74 95.002 12.74C95.5087 12.74 95.902 12.6933 96.182 12.6C96.462 12.5067 96.6554 12.3733 96.762 12.2C96.8687 12.0133 96.922 11.8067 96.922 11.58C96.922 11.3 96.8354 11.0867 96.662 10.94C96.4887 10.78 96.222 10.6533 95.862 10.56C95.502 10.4667 95.042 10.38 94.482 10.3C93.922 10.2067 93.382 10.0933 92.862 9.96C92.342 9.82667 91.882 9.65333 91.482 9.44C91.082 9.21333 90.762 8.93333 90.522 8.6C90.2954 8.25333 90.182 7.83333 90.182 7.34C90.182 6.86 90.2954 6.43333 90.522 6.06C90.762 5.68667 91.0887 5.37333 91.502 5.12C91.9287 4.86667 92.422 4.67333 92.982 4.54C93.5554 4.40667 94.1687 4.34 94.822 4.34C95.8087 4.34 96.6287 4.48667 97.282 4.78C97.9354 5.06 98.422 5.46 98.742 5.98C99.0754 6.48667 99.242 7.07333 99.242 7.74H96.942C96.8354 7.24667 96.622 6.89333 96.302 6.68C95.982 6.45333 95.4887 6.34 94.822 6.34C94.1687 6.34 93.6754 6.44 93.342 6.64C93.0087 6.84 92.842 7.11333 92.842 7.46C92.842 7.74 92.942 7.96 93.142 8.12C93.3554 8.26667 93.662 8.38667 94.062 8.48C94.4754 8.57333 94.9887 8.67333 95.602 8.78C96.122 8.88667 96.6154 9.00667 97.082 9.14C97.562 9.27333 97.9887 9.44667 98.362 9.66C98.7354 9.86 99.0287 10.1333 99.242 10.48C99.4687 10.8133 99.582 11.24 99.582 11.76C99.582 12.4 99.3954 12.94 99.022 13.38C98.662 13.82 98.142 14.16 97.462 14.4C96.782 14.6267 95.9687 14.74 95.022 14.74C94.182 14.74 93.4554 14.6533 92.842 14.48C92.242 14.2933 91.742 14.06 91.342 13.78C90.942 13.4867 90.6287 13.18 90.402 12.86C90.1887 12.5267 90.042 12.2133 89.962 11.92C89.882 11.6267 89.8554 11.3867 89.882 11.2ZM104.551 0.199999V2.48H101.531V0.199999H104.551ZM101.731 4.56H104.331V14.5H101.731V4.56ZM111.883 12.98C110.803 12.98 109.849 12.82 109.023 12.5C108.209 12.1667 107.576 11.68 107.123 11.04C106.669 10.4 106.443 9.62667 106.443 8.72C106.443 7.82667 106.663 7.05333 107.103 6.4C107.543 5.74667 108.169 5.24 108.983 4.88C109.809 4.52 110.776 4.34 111.883 4.34C112.189 4.34 112.483 4.36 112.763 4.4C113.056 4.44 113.343 4.49333 113.623 4.56L118.643 4.58V6.54C117.963 6.55333 117.269 6.47333 116.563 6.3C115.869 6.11333 115.256 5.91333 114.723 5.7L114.663 5.56C115.116 5.77333 115.543 6.04 115.943 6.36C116.343 6.66667 116.663 7.02667 116.903 7.44C117.156 7.84 117.283 8.30667 117.283 8.84C117.283 9.70667 117.063 10.4533 116.623 11.08C116.183 11.6933 115.556 12.1667 114.743 12.5C113.943 12.82 112.989 12.98 111.883 12.98ZM115.223 18.6V18.12C115.223 17.5067 115.023 17.08 114.623 16.84C114.236 16.6 113.703 16.48 113.023 16.48H109.923C109.323 16.48 108.816 16.4333 108.403 16.34C108.003 16.2467 107.683 16.1133 107.443 15.94C107.203 15.7667 107.029 15.56 106.923 15.32C106.816 15.0933 106.763 14.8467 106.763 14.58C106.763 14.0467 106.936 13.6467 107.283 13.38C107.629 13.1 108.096 12.9133 108.683 12.82C109.269 12.7267 109.916 12.7067 110.623 12.76L111.883 12.98C111.043 13.0067 110.416 13.08 110.003 13.2C109.603 13.3067 109.403 13.5267 109.403 13.86C109.403 14.06 109.483 14.22 109.643 14.34C109.803 14.4467 110.029 14.5 110.323 14.5H113.583C114.476 14.5 115.236 14.5933 115.863 14.78C116.503 14.98 116.989 15.3067 117.323 15.76C117.656 16.2267 117.823 16.86 117.823 17.66V18.6H115.223ZM111.883 11.1C112.456 11.1 112.956 11.0067 113.383 10.82C113.823 10.6333 114.163 10.3667 114.403 10.02C114.643 9.66 114.763 9.23333 114.763 8.74C114.763 8.23333 114.643 7.8 114.403 7.44C114.163 7.08 113.829 6.80667 113.403 6.62C112.976 6.42 112.469 6.32 111.883 6.32C111.309 6.32 110.803 6.42 110.363 6.62C109.923 6.80667 109.583 7.08 109.343 7.44C109.103 7.8 108.983 8.23333 108.983 8.74C108.983 9.23333 109.103 9.66 109.343 10.02C109.583 10.3667 109.916 10.6333 110.343 10.82C110.783 11.0067 111.296 11.1 111.883 11.1ZM120.341 4.56H122.941V14.5H120.341V4.56ZM127.561 4.34C128.174 4.34 128.741 4.42 129.261 4.58C129.781 4.74 130.234 4.98667 130.621 5.32C131.007 5.65333 131.307 6.08 131.521 6.6C131.734 7.10667 131.841 7.71333 131.841 8.42V14.5H129.241V8.88C129.241 8.04 129.034 7.42667 128.621 7.04C128.221 6.64 127.561 6.44 126.641 6.44C125.947 6.44 125.321 6.57333 124.761 6.84C124.201 7.10667 123.747 7.44667 123.401 7.86C123.054 8.26 122.854 8.68 122.801 9.12L122.781 8.1C122.847 7.63333 123.001 7.18 123.241 6.74C123.481 6.3 123.801 5.9 124.201 5.54C124.614 5.16667 125.101 4.87333 125.661 4.66C126.221 4.44667 126.854 4.34 127.561 4.34Z" fill="#292846"/>
</svg>
