<svg width="146" height="21" viewBox="0 0 146 21" fill="none" xmlns="http://www.w3.org/2000/svg">
<path d="M6.446 16.5L0.44 2.266H3.674L8.756 14.872L7.81 14.894L12.65 2.266H16.016L20.856 14.894L19.91 14.872L24.992 2.266H28.16L22.22 16.5H18.634L13.882 4.158H14.806L10.032 16.5H6.446ZM38.4423 12.87H41.2143C41.0969 13.618 40.7816 14.2853 40.2683 14.872C39.7696 15.4587 39.0876 15.9207 38.2223 16.258C37.3569 16.5953 36.3009 16.764 35.0543 16.764C33.6609 16.764 32.4289 16.544 31.3583 16.104C30.2876 15.6493 29.4516 14.9967 28.8503 14.146C28.2489 13.2953 27.9483 12.2687 27.9483 11.066C27.9483 9.86333 28.2416 8.83667 28.8283 7.986C29.4149 7.12067 30.2289 6.46067 31.2703 6.006C32.3263 5.55133 33.5583 5.324 34.9663 5.324C36.4036 5.324 37.5989 5.55133 38.5523 6.006C39.5056 6.46067 40.2096 7.15 40.6643 8.074C41.1336 8.98333 41.3316 10.1493 41.2583 11.572H30.8303C30.9036 12.1293 31.1089 12.6353 31.4463 13.09C31.7983 13.5447 32.2676 13.904 32.8543 14.168C33.4556 14.432 34.1669 14.564 34.9883 14.564C35.8976 14.564 36.6529 14.41 37.2543 14.102C37.8703 13.7793 38.2663 13.3687 38.4423 12.87ZM34.8343 7.502C33.7783 7.502 32.9203 7.73667 32.2603 8.206C31.6003 8.66067 31.1749 9.22533 30.9843 9.9H38.4203C38.3469 9.16667 37.9949 8.58733 37.3643 8.162C36.7483 7.722 35.9049 7.502 34.8343 7.502ZM51.8124 16.742C50.8444 16.742 50.0157 16.5733 49.3264 16.236C48.6371 15.884 48.0797 15.4293 47.6544 14.872C47.2291 14.3 46.9137 13.684 46.7084 13.024C46.5031 12.3493 46.4004 11.6893 46.4004 11.044C46.4004 10.2373 46.4957 9.48933 46.6864 8.8C46.8917 8.11067 47.2071 7.50933 47.6324 6.996C48.0577 6.468 48.6151 6.05733 49.3044 5.764C49.9937 5.47067 50.8297 5.324 51.8124 5.324C52.9417 5.324 53.9391 5.566 54.8044 6.05C55.6844 6.51933 56.3737 7.17933 56.8724 8.03C57.3857 8.88067 57.6424 9.88533 57.6424 11.044C57.6424 12.1733 57.3857 13.1707 56.8724 14.036C56.3591 14.8867 55.6624 15.554 54.7824 16.038C53.9024 16.5073 52.9124 16.742 51.8124 16.742ZM50.8884 14.542C51.6657 14.542 52.3404 14.3953 52.9124 14.102C53.4844 13.8087 53.9244 13.4053 54.2324 12.892C54.5551 12.364 54.7164 11.748 54.7164 11.044C54.7164 9.988 54.3791 9.13733 53.7044 8.492C53.0444 7.84667 52.1057 7.524 50.8884 7.524C50.0377 7.524 49.2971 7.66333 48.6664 7.942C48.0357 8.22067 47.5444 8.624 47.1924 9.152C46.8551 9.66533 46.6864 10.296 46.6864 11.044C46.6864 11.7333 46.8551 12.342 47.1924 12.87C47.5297 13.398 48.0137 13.8087 48.6444 14.102C49.2751 14.3953 50.0231 14.542 50.8884 14.542ZM46.6864 1.166V13.684C46.6864 14.1533 46.6644 14.6593 46.6204 15.202C46.5764 15.73 46.5324 16.1627 46.4884 16.5H43.8264V1.166H46.6864ZM73.5781 2.266C75.1768 2.266 76.5115 2.45667 77.5821 2.838C78.6528 3.21933 79.5035 3.74 80.1341 4.4C80.7795 5.04533 81.2341 5.79333 81.4981 6.644C81.7768 7.49467 81.9161 8.38933 81.9161 9.328C81.9161 10.2667 81.7621 11.1687 81.4541 12.034C81.1608 12.8993 80.6841 13.6693 80.0241 14.344C79.3788 15.004 78.5208 15.532 77.4501 15.928C76.3941 16.3093 75.1035 16.5 73.5781 16.5H65.4381V2.266H73.5781ZM68.3641 13.992H73.5121C74.5681 13.992 75.4408 13.8673 76.1301 13.618C76.8341 13.354 77.3915 13.002 77.8021 12.562C78.2128 12.122 78.5061 11.6233 78.6821 11.066C78.8581 10.5087 78.9461 9.92933 78.9461 9.328C78.9461 8.72667 78.8581 8.15467 78.6821 7.612C78.5061 7.06933 78.2128 6.58533 77.8021 6.16C77.3915 5.73467 76.8341 5.39733 76.1301 5.148C75.4408 4.89867 74.5681 4.774 73.5121 4.774H68.3641V13.992ZM94.3661 12.87H97.1381C97.0207 13.618 96.7054 14.2853 96.1921 14.872C95.6934 15.4587 95.0114 15.9207 94.1461 16.258C93.2807 16.5953 92.2247 16.764 90.9781 16.764C89.5847 16.764 88.3527 16.544 87.2821 16.104C86.2114 15.6493 85.3754 14.9967 84.7741 14.146C84.1727 13.2953 83.8721 12.2687 83.8721 11.066C83.8721 9.86333 84.1654 8.83667 84.7521 7.986C85.3387 7.12067 86.1527 6.46067 87.1941 6.006C88.2501 5.55133 89.4821 5.324 90.8901 5.324C92.3274 5.324 93.5227 5.55133 94.4761 6.006C95.4294 6.46067 96.1334 7.15 96.5881 8.074C97.0574 8.98333 97.2554 10.1493 97.1821 11.572H86.7541C86.8274 12.1293 87.0327 12.6353 87.3701 13.09C87.7221 13.5447 88.1914 13.904 88.7781 14.168C89.3794 14.432 90.0907 14.564 90.9121 14.564C91.8214 14.564 92.5767 14.41 93.1781 14.102C93.7941 13.7793 94.1901 13.3687 94.3661 12.87ZM90.7581 7.502C89.7021 7.502 88.8441 7.73667 88.1841 8.206C87.5241 8.66067 87.0987 9.22533 86.9081 9.9H94.3441C94.2707 9.16667 93.9187 8.58733 93.2881 8.162C92.6721 7.722 91.8287 7.502 90.7581 7.502ZM98.8702 12.87H101.51C101.672 13.3687 102.002 13.7793 102.5 14.102C103.014 14.41 103.681 14.564 104.502 14.564C105.06 14.564 105.492 14.5127 105.8 14.41C106.108 14.3073 106.321 14.1607 106.438 13.97C106.556 13.7647 106.614 13.5373 106.614 13.288C106.614 12.98 106.519 12.7453 106.328 12.584C106.138 12.408 105.844 12.2687 105.448 12.166C105.052 12.0633 104.546 11.968 103.93 11.88C103.314 11.7773 102.72 11.6527 102.148 11.506C101.576 11.3593 101.07 11.1687 100.63 10.934C100.19 10.6847 99.8382 10.3767 99.5742 10.01C99.3249 9.62867 99.2002 9.16667 99.2002 8.624C99.2002 8.096 99.3249 7.62667 99.5742 7.216C99.8382 6.80533 100.198 6.46067 100.652 6.182C101.122 5.90333 101.664 5.69067 102.28 5.544C102.911 5.39733 103.586 5.324 104.304 5.324C105.39 5.324 106.292 5.48533 107.01 5.808C107.729 6.116 108.264 6.556 108.616 7.128C108.983 7.68533 109.166 8.33067 109.166 9.064H106.636C106.519 8.52133 106.284 8.13267 105.932 7.898C105.58 7.64867 105.038 7.524 104.304 7.524C103.586 7.524 103.043 7.634 102.676 7.854C102.31 8.074 102.126 8.37467 102.126 8.756C102.126 9.064 102.236 9.306 102.456 9.482C102.691 9.64333 103.028 9.77533 103.468 9.878C103.923 9.98067 104.488 10.0907 105.162 10.208C105.734 10.3253 106.277 10.4573 106.79 10.604C107.318 10.7507 107.788 10.9413 108.198 11.176C108.609 11.396 108.932 11.6967 109.166 12.078C109.416 12.4447 109.54 12.914 109.54 13.486C109.54 14.19 109.335 14.784 108.924 15.268C108.528 15.752 107.956 16.126 107.208 16.39C106.46 16.6393 105.566 16.764 104.524 16.764C103.6 16.764 102.801 16.6687 102.126 16.478C101.466 16.2727 100.916 16.016 100.476 15.708C100.036 15.3853 99.6916 15.048 99.4422 14.696C99.2076 14.3293 99.0462 13.9847 98.9582 13.662C98.8702 13.3393 98.8409 13.0753 98.8702 12.87ZM115.006 0.769999V3.278H111.684V0.769999H115.006ZM111.904 5.566H114.764V16.5H111.904V5.566ZM123.071 14.828C121.883 14.828 120.834 14.652 119.925 14.3C119.03 13.9333 118.334 13.398 117.835 12.694C117.336 11.99 117.087 11.1393 117.087 10.142C117.087 9.15933 117.329 8.30867 117.813 7.59C118.297 6.87133 118.986 6.314 119.881 5.918C120.79 5.522 121.854 5.324 123.071 5.324C123.408 5.324 123.731 5.346 124.039 5.39C124.362 5.434 124.677 5.49267 124.985 5.566L130.507 5.588V7.744C129.759 7.75867 128.996 7.67067 128.219 7.48C127.456 7.27467 126.782 7.05467 126.195 6.82L126.129 6.666C126.628 6.90067 127.097 7.194 127.537 7.546C127.977 7.88333 128.329 8.27933 128.593 8.734C128.872 9.174 129.011 9.68733 129.011 10.274C129.011 11.2273 128.769 12.0487 128.285 12.738C127.801 13.4127 127.112 13.9333 126.217 14.3C125.337 14.652 124.288 14.828 123.071 14.828ZM126.745 21.01V20.482C126.745 19.8073 126.525 19.338 126.085 19.074C125.66 18.81 125.073 18.678 124.325 18.678H120.915C120.255 18.678 119.698 18.6267 119.243 18.524C118.803 18.4213 118.451 18.2747 118.187 18.084C117.923 17.8933 117.732 17.666 117.615 17.402C117.498 17.1527 117.439 16.8813 117.439 16.588C117.439 16.0013 117.63 15.5613 118.011 15.268C118.392 14.96 118.906 14.7547 119.551 14.652C120.196 14.5493 120.908 14.5273 121.685 14.586L123.071 14.828C122.147 14.8573 121.458 14.938 121.003 15.07C120.563 15.1873 120.343 15.4293 120.343 15.796C120.343 16.016 120.431 16.192 120.607 16.324C120.783 16.4413 121.032 16.5 121.355 16.5H124.941C125.924 16.5 126.76 16.6027 127.449 16.808C128.153 17.028 128.688 17.3873 129.055 17.886C129.422 18.3993 129.605 19.096 129.605 19.976V21.01H126.745ZM123.071 12.76C123.702 12.76 124.252 12.6573 124.721 12.452C125.205 12.2467 125.579 11.9533 125.843 11.572C126.107 11.176 126.239 10.7067 126.239 10.164C126.239 9.60667 126.107 9.13 125.843 8.734C125.579 8.338 125.212 8.03733 124.743 7.832C124.274 7.612 123.716 7.502 123.071 7.502C122.44 7.502 121.883 7.612 121.399 7.832C120.915 8.03733 120.541 8.338 120.277 8.734C120.013 9.13 119.881 9.60667 119.881 10.164C119.881 10.7067 120.013 11.176 120.277 11.572C120.541 11.9533 120.908 12.2467 121.377 12.452C121.861 12.6573 122.426 12.76 123.071 12.76ZM132.375 5.566H135.235V16.5H132.375V5.566ZM140.317 5.324C140.991 5.324 141.615 5.412 142.187 5.588C142.759 5.764 143.257 6.03533 143.683 6.402C144.108 6.76867 144.438 7.238 144.673 7.81C144.907 8.36733 145.025 9.03467 145.025 9.812V16.5H142.165V10.318C142.165 9.394 141.937 8.71933 141.483 8.294C141.043 7.854 140.317 7.634 139.305 7.634C138.542 7.634 137.853 7.78067 137.237 8.074C136.621 8.36733 136.122 8.74133 135.741 9.196C135.359 9.636 135.139 10.098 135.081 10.582L135.059 9.46C135.132 8.94667 135.301 8.448 135.565 7.964C135.829 7.48 136.181 7.04 136.621 6.644C137.075 6.23333 137.611 5.91067 138.227 5.676C138.843 5.44133 139.539 5.324 140.317 5.324Z" fill="white"/>
</svg>
